<?xml version="1.0" encoding="iso-8859-1"?>
<!-- Generator: Adobe Illustrator 19.0.0, SVG Export Plug-In . SVG Version: 6.00 Build 0)  -->
<svg version="1.1" id="Layer_1" xmlns="http://www.w3.org/2000/svg" xmlns:xlink="http://www.w3.org/1999/xlink" x="0px" y="0px"
	 viewBox="0 0 512 512" style="enable-background:new 0 0 512 512;" xml:space="preserve">
<path style="fill:#F7B239;" d="M332.689,206.088c-8.157,6.314,24.418,38.975,17.22,46.173
	C326.582,275.564,268.174,363.231,256,393.339c-12.161-30.108-68.014-120.354-91.33-143.657c-7.198-7.211,22.809-37.28,14.64-43.606
	C197.896,166.705,223.472,129.828,256,97.3C288.54,129.828,314.104,166.718,332.689,206.088z"/>
<path style="fill:#E54728;" d="M256,307.493c27.037,49.259,20.281,88.261-4.082,100.033c-2.422,1.171-109.681,34.195-100.729,6.142
	c-24.826-61.212-42.585-63.877-47.437-141.123v-0.012c-1.167-33.093,4.435-66.96,17.652-99.648
	c21.251,8.587,40.636,19.826,57.907,33.192c8.169,6.326,15.859,13.107,23.057,20.318C225.683,249.696,243.839,277.385,256,307.493z"
	/>
<path style="fill:#F95428;" d="M408.261,272.545C397.737,475.661,277.791,408.894,264.31,484.06
	c-2.779,15.494-49.056-4.872-50.064-8.46c-3.433-12.232,19.755-25.392,15.15-40.639c-2.161-7.152,11.734-21.204,8.951-28.053
	c-0.111-2.69-0.147-5.393-0.147-8.083c0-31.545,6.167-62.55,17.8-91.332c12.174-30.108,30.317-57.797,53.645-81.099
	c7.198-7.198,14.888-13.992,23.045-20.306c17.284-13.377,36.668-24.617,57.932-33.204c13.218,32.688,18.807,66.555,17.64,99.648
	V272.545z"/>
<path style="fill:#31AF0E;" d="M499.311,254.893c2.874,0,5.749,0.049,8.648,0.147c-4.693,134.461-117.497,239.65-251.946,234.957
	c3.464-99.218,65.793-182.504,152.249-217.453C436.453,261.145,467.2,254.893,499.311,254.893z"/>
<path style="fill:#2F9B0B;" d="M238.348,406.908c10.454,25.735,16.633,53.718,17.665,83.089
	C121.551,494.69,8.746,389.501,4.054,255.04c2.899-0.098,5.774-0.147,8.648-0.147c32.111,0,62.87,6.253,91.05,17.652
	C164.619,297.15,213.522,345.696,238.348,406.908z"/>
<circle style="fill:#F7B239;" cx="9.213" cy="209.702" r="9.213"/>
<circle style="fill:#31AF0E;" cx="121.403" cy="107.413" r="9.213"/>
<circle style="fill:#F95428;" cx="256" cy="31.065" r="9.213"/>
<circle style="fill:#31AF0E;" cx="390.621" cy="107.413" r="9.213"/>
<circle style="fill:#F7B239;" cx="502.787" cy="209.702" r="9.213"/>
<g>
</g>
<g>
</g>
<g>
</g>
<g>
</g>
<g>
</g>
<g>
</g>
<g>
</g>
<g>
</g>
<g>
</g>
<g>
</g>
<g>
</g>
<g>
</g>
<g>
</g>
<g>
</g>
<g>
</g>
</svg>
